Coordinates
version=1
nRows=24
nColumns=24
inDegrees=yes

Units are S.I. units (second, meters, Newtons, ...)
Angles are in degrees.

endheader
time	pelvis_tilt	pelvis_list	pelvis_rotation	pelvis_tx	pelvis_ty	pelvis_tz	hip_flexion_r	hip_adduction_r	hip_rotation_r	knee_angle_r	ankle_angle_r	subtalar_angle_r	mtp_angle_r	hip_flexion_l	hip_adduction_l	hip_rotation_l	knee_angle_l	ankle_angle_l	subtalar_angle_l	mtp_angle_l	lumbar_extension	lumbar_bending	lumbar_rotation
      5.53500000	     -3.08885774	      0.62259207	     -3.46062237	      1.38609360	      1.03571377	     -0.18725369	      0.50770731	      4.71390479	     10.61650020	     -9.40346202	     15.31261203	    -12.75917064	      0.00000000	     28.82966219	     -4.44816213	    -15.46058755	    -52.44162191	      5.43588241	     -5.33602623	      0.00000000	     -9.61575908	     -2.16099722	      2.28470595
      5.54000000	     -3.08345711	      0.69651784	     -3.66515458	      1.39186980	      1.03574110	     -0.18726606	      0.00656572	      4.58414063	     10.84105152	     -9.08262569	     15.20798281	    -12.93158035	      0.00000000	     28.92329365	     -4.33258597	    -15.65339506	    -50.89075949	      5.80140450	     -4.99507501	      0.00000000	     -9.68643550	     -2.27936508	      2.55827817
      5.54500000	     -3.20977871	      0.72356391	     -3.75111156	      1.39766651	      1.03549431	     -0.18746842	     -0.33785611	      4.50732048	     10.87032768	     -8.80539734	     15.18792492	    -12.97187211	      0.00000000	     29.16113520	     -4.20301788	    -15.68443484	    -49.31163314	      6.14060819	     -4.63170650	      0.00000000	     -9.59078122	     -2.31783822	      2.68475995
      5.55000000	     -3.15184894	      0.79611099	     -3.99507929	      1.40354632	      1.03550302	     -0.18746873	     -0.90029798	      4.36528596	     11.24206437	     -8.49536752	     15.08908436	    -13.17844419	      0.00000000	     29.11540881	     -4.09649991	    -15.92911814	    -47.61697722	      6.42282841	     -4.32436525	      0.00000000	     -9.70401740	     -2.43641790	      2.98294248
      5.55500000	     -3.17256265	      0.82645782	     -4.13231587	      1.40944722	      1.03530294	     -0.18764483	     -1.36737019	      4.27125413	     11.45825577	     -8.21652107	     15.03870999	    -13.33845841	      0.00000000	     29.14891989	     -3.97243138	    -16.03347667	    -45.88586474	      6.69916086	     -4.00868188	      0.00000000	     -9.72600558	     -2.48541227	      3.16120865
      5.56000000	     -3.19624623	      0.84180055	     -4.27921874	      1.41539344	      1.03505805	     -0.18781398	     -1.82807963	      4.19039254	     11.67738214	     -7.95046617	     14.98688722	    -13.48340389	      0.00000000	     29.14974411	     -3.86436167	    -16.14346344	    -44.09411584	      6.92506092	     -3.70356573	      0.00000000	     -9.73670869	     -2.51924094	      3.35310277
      5.56500000	     -3.21882468	      0.84122759	     -4.41367926	      1.42138769	      1.03475681	     -0.18803231	     -2.29006337	      4.12187898	     11.89143120	     -7.69196514	     14.93947403	    -13.62701652	      0.00000000	     29.11749196	     -3.75861044	    -16.23660749	    -42.24585795	      7.12050261	     -3.40441414	      0.00000000	     -9.74722991	     -2.52581094	      3.53086368
      5.57000000	     -3.21783057	      0.82213814	     -4.54906472	      1.42742749	      1.03444538	     -0.18823004	     -2.77736601	      4.07058804	     12.11123578	     -7.44175069	     14.87824723	    -13.77856105	      0.00000000	     29.02434545	     -3.66181649	    -16.30638495	    -40.33805145	      7.27072404	     -3.10983483	      0.00000000	     -9.77834522	     -2.52502110	      3.71940517
      5.57500000	     -3.22662946	      0.78549260	     -4.66413067	      1.43350530	      1.03405495	     -0.18850983	     -3.25121376	      4.03362499	     12.30226209	     -7.20548185	     14.83281390	    -13.91026645	      0.00000000	     28.91361376	     -3.56348406	    -16.34529009	    -38.38118665	      7.40300952	     -2.81544837	      0.00000000	     -9.80148238	     -2.48429440	      3.89146654
      5.58000000	     -3.33616864	      0.70540874	     -4.73430410	      1.43956927	      1.03346542	     -0.18885050	     -3.59985333	      4.05392665	     12.39413918	     -7.01434697	     14.82900172	    -13.95049143	      0.00000000	     28.89961640	     -3.48574025	    -16.26371791	    -36.40476390	      7.50480228	     -2.45439176	      0.00000000	     -9.71221658	     -2.38669816	      4.02253841
      5.58500000	     -3.18754751	      0.66036999	     -4.88487298	      1.44579743	      1.03322875	     -0.18912065	     -4.26371253	      3.99686500	     12.66995873	     -6.75387842	     14.74229625	    -14.09621942	      0.00000000	     28.53509663	     -3.38223943	    -16.33055827	    -34.32061413	      7.53666122	     -2.20948449	      0.00000000	     -9.90465123	     -2.35499679	      4.23408464
      5.59000000	     -3.18922703	      0.57319533	     -4.95319315	      1.45208250	      1.03268272	     -0.18950020	     -4.75721959	      4.00379426	     12.78781199	     -6.53058849	     14.71833651	    -14.15677027	      0.00000000	     28.32807563	     -3.28934165	    -16.25847621	    -32.23769780	      7.59729286	     -1.88788314	      0.00000000	     -9.91087136	     -2.25327313	      4.34815652
      5.59500000	     -3.13307088	      0.46791168	     -5.03484305	      1.45833811	      1.03219963	     -0.18991919	     -5.30408399	      4.01644754	     12.92685186	     -6.32658277	     14.68612056	    -14.17778218	      0.00000000	     28.03226791	     -3.20366265	    -16.14843912	    -30.11531609	      7.58489533	     -1.56618949	      0.00000000	    -10.00596982	     -2.12922881	      4.50080973
      5.60000000	     -3.10097497	      0.35009028	     -5.09605743	      1.46468983	      1.03161893	     -0.19038063	     -5.82991274	      4.04281623	     13.02299010	     -6.12742883	     14.67137500	    -14.16745848	      0.00000000	     27.73873466	     -3.11853883	    -15.99425614	    -27.97239797	      7.56585317	     -1.24344950	      0.00000000	    -10.05544792	     -1.98565499	      4.62211562
      5.60500000	     -3.06293948	      0.22187602	     -5.14902589	      1.47109779	      1.03099945	     -0.19088216	     -6.36144234	      4.07645287	     13.10011771	     -5.93950281	     14.66588500	    -14.12714500	      0.00000000	     27.41620530	     -3.03382614	    -15.79299581	    -25.81107691	      7.52155434	     -0.92337191	      0.00000000	    -10.10671009	     -1.82678397	      4.73553607
      5.61000000	     -3.05306484	      0.08748583	     -5.19274828	      1.47758226	      1.03028943	     -0.19145653	     -6.86388529	      4.11323829	     13.17209160	     -5.76246375	     14.67599181	    -14.05667452	      0.00000000	     27.10213254	     -2.94346620	    -15.52735145	    -23.63657215	      7.44975704	     -0.64821998	      0.00000000	    -10.11538320	     -1.64482334	      4.83199309
      5.61500000	     -3.04200149	     -0.07848683	     -5.23788015	      1.48405418	      1.02954495	     -0.19202289	     -7.35724278	      4.18345242	     13.24906410	     -5.61402363	     14.68960875	    -13.95420772	      0.00000000	     26.77641095	     -2.88718309	    -15.18218574	    -21.47630492	      7.33989040	     -0.36918866	      0.00000000	    -10.13124418	     -1.43280551	      4.93716786
      5.62000000	     -2.96077311	     -0.21769920	     -5.27603711	      1.49066741	      1.02885743	     -0.19259597	     -7.92557030	      4.22168590	     13.24592537	     -5.46737707	     14.69846246	    -13.85297343	      0.00000000	     26.34059847	     -2.79080981	    -14.78478312	    -19.29008847	      7.20844774	     -0.16202076	      0.00000000	    -10.20673942	     -1.26476665	      5.03218968
      5.62500000	     -2.94723607	     -0.38441475	     -5.31984581	      1.49727351	      1.02804273	     -0.19324851	     -8.40615891	      4.28691039	     13.29893549	     -5.36598669	     14.71807824	    -13.71547652	      0.00000000	     25.97030975	     -2.72824238	    -14.29194976	    -17.13584379	      7.04191120	     -0.01883895	      0.00000000	    -10.21460797	     -1.03439487	      5.14438666
      5.63000000	     -2.84450951	     -0.51581305	     -5.33315740	      1.50401281	      1.02730580	     -0.19387274	     -8.98629730	      4.31299386	     13.28430915	     -5.26155640	     14.77914283	    -13.53900252	      0.00000000	     25.47791994	     -2.61895344	    -13.68261159	    -14.98619455	      6.82371221	      0.06756857	      0.00000000	    -10.30283181	     -0.87356030	      5.18368027
      5.63500000	     -2.83511846	     -0.68546184	     -5.39037492	      1.51073011	      1.02643751	     -0.19447816	     -9.43579647	      4.38558098	     13.30126530	     -5.22401681	     14.81061281	    -13.36328868	      0.00000000	     25.06785570	     -2.57637535	    -12.97176485	    -12.87069787	      6.52592047	     -0.04198160	      0.00000000	    -10.28633830	     -0.65412140	      5.30899405
      5.64000000	     -2.79715823	     -0.85699968	     -5.43602268	      1.51751258	      1.02557440	     -0.19507661	     -9.90673499	      4.45893180	     13.30156266	     -5.21527407	     14.87386094	    -13.13713994	      0.00000000	     24.60827931	     -2.54251024	    -12.12720511	    -10.79403074	      6.16650311	     -0.28640997	      0.00000000	    -10.29599015	     -0.43898025	      5.40054726
      5.64500000	     -2.75150304	     -1.02660600	     -5.48029272	      1.52434633	      1.02470371	     -0.19565811	    -10.36785035	      4.53135038	     13.28456214	     -5.24911585	     14.96117713	    -12.86771805	      0.00000000	     24.12383619	     -2.52440243	    -11.16204163	     -8.77049937	      5.72999908	     -0.68955547	      0.00000000	    -10.30936199	     -0.22981569	      5.48401129
      5.65000000	     -2.71115264	     -1.20538024	     -5.52892360	      1.53121468	      1.02381767	     -0.19619125	    -10.80267702	      4.61712896	     13.25845950	     -5.33182155	     15.06312180	    -12.55723542	      0.00000000	     23.63778063	     -2.54430807	    -10.09884628	     -6.82710388	      5.22196659	     -1.25062839	      0.00000000	    -10.31372044	     -0.01713461	      5.56667549
